<svg version="1.1" xmlns="http://www.w3.org/2000/svg">
  <defs>
    <g id="icon-appstore" stroke="none" strokeWidth="1" fill="none" fillRule="evenodd">
      <g transform="translate(-596.000000, -582.000000)" id="AppStore" fill="#77899E">
        <g transform="translate(596.000000, 582.000000)">
          <path
            d="M80.9214691 8.64055172C80.3204198 8.64055172 80.067642 9.17627586 80.028321 9.56468966L81.7196852 9.56468966C81.7275494 9.21489655 81.569142 8.64055172 80.9214691 8.64055172ZM43.1115309 10.7133793C43.1115309 11.0857931 43.3570062 11.2568276 43.6642716 11.2568276 44.0602901 11.2568276 44.3366605 11.0085517 44.4315926 10.7365517 44.4551852 10.6670345 44.4551852 10.5969655 44.4551852 10.5268966L44.4551852 10.0071724C43.7676296 9.99944828 43.1115309 10.1390345 43.1115309 10.7133793ZM61.8187716 8.67917241C61.1306543 8.67917241 60.854284 9.33903448 60.854284 9.968 60.854284 10.697931 61.2255864 11.2491034 61.8109074 11.2491034 62.3636481 11.2491034 62.7512407 10.7211034 62.7512407 9.95255172 62.7512407 9.36275862 62.4821728 8.67917241 61.8187716 8.67917241ZM55.2875556 8.64055172C54.6870679 8.64055172 54.4337284 9.17627586 54.3944074 9.56468966L56.0857716 9.56468966C56.0930741 9.21489655 55.9352284 8.64055172 55.2875556 8.64055172ZM48.2901049 8.7337931C47.8952099 8.7337931 47.5312099 9.01351724 47.4289753 9.43227586 47.4121235 9.50234483 47.3963951 9.58731034 47.3963951 9.68110345L47.3963951 10.294069C47.3963951 10.3718621 47.404821 10.4496552 47.4205494 10.5197241 47.5233457 10.9070345 47.8631914 11.1867586 48.281679 11.1867586 48.8905926 11.1867586 49.2618951 10.7133793 49.2618951 9.94537931 49.2618951 9.27724138 48.9377778 8.7337931 48.2901049 8.7337931ZM82.6117099 21.0797241 77.629179 21.0797241C77.6488395 21.8041379 77.889821 22.3558621 78.3526852 22.7376552 78.7717346 23.0808276 79.3143642 23.2524138 79.9816975 23.2524138 80.7209321 23.2524138 81.3905123 23.1371034 81.9960556 22.902069L82.2572593 24.0364138C81.5528519 24.3404138 80.7153148 24.4882759 79.7497037 24.4882759 78.5936667 24.4882759 77.6836667 24.1555862 77.0225123 23.4863448 76.3619198 22.8171034 76.0288148 21.9183448 76.0288148 20.7917241 76.0288148 19.6822069 76.3377654 18.7630345 76.9511728 18.0248276 77.5999691 17.2402759 78.4712099 16.8485517 79.5660185 16.8485517 80.6456605 16.8485517 81.4596049 17.2402759 82.0112222 18.0248276 82.4504938 18.6510345 82.6723765 19.4217931 82.6723765 20.3387586 82.6723765 20.6284138 82.6510309 20.8750345 82.6117099 21.0797241ZM75.7580617 9.58731034 75.7580617 11.8543448 74.7868333 11.8543448 74.7868333 6.34317241 75.7580617 6.34317241 75.7580617 8.58648276 75.7743519 8.58648276C75.8923148 8.40827586 76.0585864 8.26041379 76.2563148 8.15944828 76.4534815 8.05075862 76.6832284 7.98841379 76.928142 7.98841379 77.5842407 7.98841379 78.272358 8.41544828 78.272358 9.62648276L78.272358 11.8543448 77.2994444 11.8543448 77.2994444 9.72744828C77.2994444 9.184 77.0938519 8.76468966 76.5568395 8.76468966 76.1771111 8.76468966 75.9086049 9.01351724 75.7985062 9.30041379 75.7664877 9.38593103 75.7580617 9.48689655 75.7580617 9.58731034ZM75.5064074 18.4485517C75.3429444 18.4193103 75.1665617 18.4071724 74.9834383 18.4071724 74.3992407 18.4071724 73.9492963 18.6234483 73.6307963 19.0548966 73.3533025 19.4388966 73.215679 19.9150345 73.215679 20.5031724L73.215679 24.3542069 71.5552099 24.3542069 71.5552099 19.3230345C71.5552099 18.4816552 71.5400432 17.7114483 71.5108333 17.014069L72.9555988 17.014069 73.0173889 18.4193103 73.0628889 18.4193103C73.236463 17.9376552 73.5117099 17.5486897 73.8931235 17.2590345 74.262179 16.9942069 74.6638148 16.8673103 75.0940988 16.8673103 75.2463272 16.8673103 75.3856358 16.8750345 75.5064074 16.8943448L75.5064074 18.4485517ZM71.2440123 8.07393103 71.7894506 8.07393103 71.7894506 7.36717241 72.7460741 7.10344828 72.7460741 8.07393103 73.6701173 8.07393103 73.6701173 8.78786207 72.7460741 8.78786207 72.7460741 10.4568276C72.7460741 10.9230345 72.872463 11.1558621 73.2437654 11.1558621 73.4173395 11.1558621 73.5122716 11.1475862 73.6229321 11.1172414L73.6392222 11.8388966C73.4965432 11.8929655 73.2359012 11.9398621 72.9359383 11.9398621 72.5719383 11.9398621 72.2792778 11.8234483 72.0978395 11.6292414 71.8843827 11.4118621 71.7894506 11.0626207 71.7894506 10.566069L71.7894506 8.78786207 71.2440123 8.78786207 71.2440123 8.07393103ZM69.5279321 23.4052414C68.8392531 24.1484138 67.9270062 24.5202759 66.7917531 24.5202759 65.6930123 24.5202759 64.816716 24.1633103 64.1662346 23.4482759 63.5163148 22.7348966 63.1921975 21.8306207 63.1921975 20.7448276 63.1921975 19.6077241 63.5269877 18.6758621 64.1982531 17.9514483 64.870642 17.2242759 65.7727778 16.8667586 66.9102778 16.8667586 68.0112654 16.8667586 68.8920556 17.2204138 69.5582654 17.9387586 70.1918951 18.6295172 70.5098333 19.5282759 70.5098333 20.6245517 70.5098333 21.7555862 70.1840309 22.678069 69.5279321 23.4052414ZM61.7788889 11.9398621C60.6964383 11.9398621 59.8504753 11.209931 59.8504753 9.99172414 59.8504753 8.74924138 60.6801481 7.98841379 61.8423642 7.98841379 62.9882901 7.98841379 63.7550494 8.78068966 63.7550494 9.92937931 63.7550494 11.3191724 62.7591049 11.9398621 61.7788889 11.9398621ZM62.7152901 18.2361379 60.8829321 18.2361379 60.8829321 21.8041379C60.8829321 22.7089655 61.2081728 23.1586207 61.8541605 23.1586207 62.1513148 23.1586207 62.3951049 23.1371034 62.5917099 23.0874483L62.6388951 24.3227586C62.310284 24.4435862 61.8805617 24.5042759 61.3474815 24.5042759 60.6947531 24.5042759 60.1785247 24.3111724 59.8105926 23.9155862 59.4381667 23.5249655 59.2544815 22.8645517 59.2544815 21.9382069L59.2544815 18.2361379 58.1641667 18.2361379 58.1641667 17.014069 59.2544815 17.014069 59.2544815 15.6706207 60.8829321 15.1878621 60.8829321 17.014069 62.7152901 17.014069 62.7152901 18.2361379ZM56.8615185 23.6132414C56.1835123 24.208 55.2437407 24.5031724 54.0377099 24.5031724 52.9204321 24.5031724 52.0267222 24.2913103 51.3520864 23.8703448L51.7379938 22.5114483C52.4648704 22.9324138 53.2636481 23.1453793 54.1332037 23.1453793 54.761216 23.1453793 55.2471111 23.0057931 55.5959444 22.7304828 55.9425309 22.4546207 56.1166667 22.0855172 56.1166667 21.6165517 56.1166667 21.2093793 55.9734259 20.8617931 55.6880679 20.5782069 55.398216 20.2962759 54.9252407 20.0369655 54.2584691 19.7931034 52.4457716 19.1304828 51.5380185 18.1583448 51.5380185 16.8805517 51.5380185 16.0446897 51.8548333 15.3588966 52.4963272 14.8248276 53.1372593 14.2929655 53.9849074 14.0253793 55.0420802 14.0253793 55.9846605 14.0253793 56.7693951 14.1875862 57.3957222 14.5075862L56.9766728 15.8366897C56.3924753 15.526069 55.7285123 15.3682759 54.9881543 15.3682759 54.4028333 15.3682759 53.9433395 15.513931 53.6130432 15.7892414 53.3372346 16.0446897 53.1984877 16.352 53.1984877 16.7133793 53.1984877 17.1133793 53.3574568 17.4466207 53.6748333 17.7125517 53.9523272 17.9525517 54.4545123 18.2135172 55.1797037 18.4948966 56.074537 18.8446897 56.7283889 19.2595862 57.1502469 19.7346207 57.5692963 20.2074483 57.7805062 20.7955862 57.7805062 21.4990345 57.7805062 22.3652414 57.4721173 23.0725517 56.8615185 23.6132414ZM48.5035617 11.9398621C48.0053086 11.9398621 47.5626667 11.753931 47.2862963 11.2877241L47.2700062 11.2877241 47.222821 11.8543448 46.3931481 11.8543448C46.4088765 11.5983448 46.4251667 11.1790345 46.4251667 10.7906207L46.4251667 6.34317241 47.3963951 6.34317241 47.3963951 8.59365517 47.4121235 8.59365517C47.6491728 8.22896552 48.0682222 7.98841379 48.645679 7.98841379 49.5860123 7.98841379 50.2578395 8.75696552 50.2499753 9.90565517 50.2499753 11.2645517 49.3731173 11.9398621 48.5035617 11.9398621ZM47.3626914 23.5564138C46.7442284 24.198069 45.9780309 24.5202759 45.0596049 24.5202759 44.0704012 24.5202759 43.3592531 24.1737931 42.9278457 23.4764138L42.9278457 27.3307586 41.2668148 27.3307586 41.2668148 19.4262069C41.2668148 18.6411034 41.2454691 17.8383448 41.2055864 17.014069L42.6621481 17.014069 42.7582037 18.1771034 42.7868519 18.1771034C43.3440864 17.3042759 44.1816235 16.8667586 45.3090123 16.8667586 46.1909259 16.8667586 46.9267901 17.206069 47.5160432 17.8924138 48.1069815 18.5754483 48.4007654 19.4786207 48.4007654 20.5947586 48.4007654 21.8471724 48.0558642 22.8297931 47.3626914 23.5564138ZM39.909679 11.8543448 40.8814691 11.8543448 40.8814691 6.34317241 39.909679 6.34317241 39.909679 11.8543448ZM39.1530309 23.5564138C38.5362531 24.198069 37.7661235 24.5202759 36.8505062 24.5202759 35.8584938 24.5202759 35.1484691 24.1737931 34.7170617 23.4764138L34.7170617 27.3307586 33.057716 27.3307586 33.057716 19.4262069C33.057716 18.6411034 33.0363704 17.8383448 32.993679 17.014069L34.4547346 17.014069 34.5462963 18.1771034 34.5755062 18.1771034C35.1316173 17.3042759 35.9708395 16.8667586 37.0999136 16.8667586 37.9812654 16.8667586 38.7148827 17.206069 39.3080679 17.8924138 39.8950741 18.5754483 40.1911049 19.4786207 40.1911049 20.5947586 40.1911049 21.8471724 39.8462037 22.8297931 39.1530309 23.5564138ZM32.6515864 10.8143448C32.6515864 9.86703448 33.512716 9.3782069 34.9355741 9.38593103L34.9355741 9.32358621C34.9355741 9.07531034 34.8327778 8.66372414 34.1530864 8.66372414 33.773358 8.66372414 33.3790247 8.78068966 33.117821 8.94344828L32.9279568 8.3222069C33.2121914 8.15172414 33.7104444 7.98841379 34.319358 7.98841379 35.5517901 7.98841379 35.9079259 8.75696552 35.9079259 9.58731034L35.9079259 10.9462069C35.9079259 11.2877241 35.9230926 11.6215172 35.9708395 11.8543448L35.0934198 11.8543448 35.022642 11.4355862 34.9990494 11.4355862C34.7693025 11.7302069 34.3665432 11.9398621 33.8604259 11.9398621 33.0858025 11.9398621 32.6515864 11.3886897 32.6515864 10.8143448ZM30.6501481 11.8543448 29.6935247 11.8543448 28.2628025 8.07393103 29.3149198 8.07393103 29.9384383 9.99172414C30.0490988 10.3255172 30.1283025 10.6278621 30.199642 10.9384828L30.2237963 10.9384828C30.2945741 10.6278621 30.381642 10.3326897 30.4844383 9.99172414L31.1006543 8.07393103 32.1207531 8.07393103 30.6501481 11.8543448ZM30.2732284 24.3542069 29.3053704 21.3666207 25.9372469 21.3666207 25.0132037 24.3542069 23.2931914 24.3542069 26.6264877 14.176 28.6891543 14.176 32.0426728 24.3542069 30.2732284 24.3542069ZM18.539284 23.9718621C18.539284 24.8932414 17.7742099 25.6408276 16.8361235 25.6408276L9.53646296 25.6408276C8.59725309 25.6408276 7.83161728 24.8932414 7.83161728 23.9718621L7.83161728 8.03917241C7.83161728 7.1177931 8.59725309 6.368 9.53646296 6.368L16.8361235 6.368C17.7742099 6.368 18.539284 7.1177931 18.539284 8.03917241L18.539284 23.9718621ZM25.012642 6.62234483 26.2535 6.62234483 27.9841852 11.8543448 26.9331914 11.8543448 26.4517901 10.3718621 24.7677284 10.3718621 24.3087963 11.8543448 23.3049877 11.8543448 25.012642 6.62234483ZM37.4116728 11.8543448 38.3829012 11.8543448 38.3829012 8.07393103 37.4116728 8.07393103 37.4116728 11.8543448ZM37.9015 6.4982069C38.2329198 6.4982069 38.4390741 6.72331034 38.4463765 7.01793103 38.4463765 7.29765517 38.2329198 7.53048276 37.8930741 7.53048276 37.5689568 7.53048276 37.3560617 7.29765517 37.3560617 7.01793103 37.3560617 6.72331034 37.5773827 6.4982069 37.9015 6.4982069ZM43.6491049 8.66372414C43.2693765 8.66372414 42.8744815 8.78068966 42.6138395 8.94344828L42.4239753 8.3222069C42.7082099 8.15172414 43.206463 7.98841379 43.8148148 7.98841379 45.0478086 7.98841379 45.4039444 8.75696552 45.4039444 9.58731034L45.4039444 10.9462069C45.4039444 11.2877241 45.4191111 11.6215172 45.4662963 11.8543448L44.5894383 11.8543448 44.5186605 11.4355862 44.4950679 11.4355862C44.2658827 11.7302069 43.8625617 11.9398621 43.3570062 11.9398621 42.581821 11.9398621 42.1470432 11.3886897 42.1470432 10.8143448 42.1470432 9.86703448 43.0081728 9.3782069 44.4315926 9.38593103L44.4315926 9.32358621C44.4315926 9.07531034 44.3282346 8.66372414 43.6491049 8.66372414ZM51.3588272 11.8543448 52.3300556 11.8543448 52.3300556 6.34317241 51.3588272 6.34317241 51.3588272 11.8543448ZM55.3426049 7.98841379C56.5913272 7.98841379 57.0030741 8.99751724 57.0030741 9.82841379 57.0030741 10.0071724 56.986784 10.1467586 56.9710556 10.2322759L54.3944074 10.2322759C54.418 10.9147586 54.9555741 11.209931 55.5796543 11.209931 56.0301605 11.209931 56.3464136 11.1404138 56.6469383 11.0394483L56.7890556 11.6915862C56.4570741 11.8311724 55.9987037 11.9321379 55.4454012 11.9321379 54.196679 11.9321379 53.4619383 11.1790345 53.4619383 10.0226207 53.4619383 8.97434483 54.1096111 7.98841379 55.3426049 7.98841379ZM65.5508951 8.07393103 65.5980802 8.64055172 65.6222346 8.64055172C65.7958086 8.34537931 66.214858 7.98841379 66.8552284 7.98841379 67.5270556 7.98841379 68.2224753 8.41544828 68.2224753 9.61103448L68.2224753 11.8543448 67.2506852 11.8543448 67.2506852 9.71917241C67.2506852 9.17627586 67.0445309 8.76468966 66.5153827 8.76468966 66.1283519 8.76468966 65.859284 9.03668966 65.7559259 9.32358621 65.7244691 9.40137931 65.7087407 9.5177931 65.7087407 9.62648276L65.7087407 11.8543448 64.7369506 11.8543448 64.7369506 9.2C64.7369506 8.76468966 64.7212222 8.4 64.7049321 8.07393103L65.5508951 8.07393103ZM80.9765185 7.98841379C82.2252407 7.98841379 82.6364259 8.99751724 82.6364259 9.82841379 82.6364259 10.0071724 82.6206975 10.1467586 82.6049691 10.2322759L80.028321 10.2322759C80.0519136 10.9147586 80.5894877 11.209931 81.2135679 11.209931 81.6640741 11.209931 81.9803272 11.1404138 82.2802901 11.0394483L82.4224074 11.6915862C82.0909877 11.8311724 81.6326173 11.9321379 81.0793148 11.9321379 79.8305926 11.9321379 79.0958519 11.1790345 79.0958519 10.0226207 79.0958519 8.97434483 79.7435247 7.98841379 80.9765185 7.98841379ZM25.8748951 8.36137931C25.771537 8.04248276 25.6850309 7.68551724 25.6058272 7.38317241L25.589537 7.38317241C25.5108951 7.68551724 25.4238272 8.05075862 25.3367593 8.36137931L24.9261358 9.6502069 26.2933827 9.6502069 25.8748951 8.36137931ZM34.9355741 10.7365517C34.9586049 10.6670345 34.9586049 10.5969655 34.9586049 10.5268966L34.9586049 10.0071724C34.2716111 9.99944828 33.6160741 10.1390345 33.6160741 10.7133793 33.6160741 11.0857931 33.8604259 11.2568276 34.1688148 11.2568276 34.5637099 11.2568276 34.8400802 11.0085517 34.9355741 10.7365517ZM79.4435617 17.9795862C78.9014938 17.9795862 78.4610988 18.2068966 78.1212531 18.6471724 77.8448827 18.9986207 77.6791728 19.4217931 77.629179 19.9128276L81.0883025 19.9128276C81.0972901 19.4311724 80.9922469 19.0151724 80.7669938 18.6609655 80.4788272 18.2096552 80.0367469 17.9795862 79.4435617 17.9795862ZM27.612321 15.5354483 27.5836728 15.5354483C27.4791914 15.968 27.3174136 16.6063448 27.0899136 17.4532414L26.2282222 20.1114483 29.0110247 20.1114483 28.1380988 17.4532414C28.0437284 17.1801379 27.8673457 16.5406897 27.612321 15.5354483ZM44.7714383 18.1605517C44.3602531 18.1605517 43.992321 18.2935172 43.6580926 18.56 43.3249877 18.8303448 43.1059136 19.1801379 43.0031173 19.6132414 42.952 19.8157241 42.9278457 19.9806897 42.9278457 20.112L42.9278457 21.334069C42.9278457 21.8686897 43.0918704 22.32 43.4266605 22.6874483 43.758642 23.0521379 44.192858 23.2364138 44.7231296 23.2364138 45.3517037 23.2364138 45.8381605 23.001931 46.1869938 22.5268966 46.5363889 22.054069 46.7110864 21.430069 46.7110864 20.6526897 46.7110864 19.9398621 46.5459383 19.350069 46.2190123 18.8882759 45.857821 18.4071724 45.3752963 18.1605517 44.7714383 18.1605517ZM66.8496111 18.0595862C66.1850864 18.0595862 65.677284 18.3492414 65.3306975 18.9324138 65.0301728 19.4124138 64.883 19.9977931 64.883 20.6913103 64.883 21.3666207 65.0301728 21.9426207 65.3306975 22.4237241 65.6857099 23.0057931 66.1884568 23.2954483 66.8372531 23.2954483 67.4686358 23.2954483 67.9680123 23.001931 68.3247099 22.4055172 68.6342222 21.9183448 68.7886975 21.334069 68.7886975 20.6626207 68.7886975 19.9917241 68.6404012 19.4124138 68.3449321 18.9324138 67.9916049 18.3492414 67.4961605 18.0595862 66.8496111 18.0595862ZM36.5595309 18.1605517C36.1500309 18.1605517 35.7804136 18.2935172 35.4467469 18.56 35.1125185 18.8303448 34.8956914 19.1801379 34.7923333 19.6132414 34.7423395 19.8157241 34.7170617 19.9806897 34.7170617 20.112L34.7170617 21.334069C34.7170617 21.8686897 34.8805247 22.32 35.2153148 22.6874483 35.547858 23.0521379 35.9820741 23.2364138 36.5140309 23.2364138 37.1375494 23.2364138 37.6279383 23.001931 37.9756481 22.5268966 38.3244815 22.054069 38.4969321 21.430069 38.4969321 20.6526897 38.4969321 19.9398621 38.3351543 19.350069 38.0065432 18.8882759 37.6464753 18.4071724 37.1650741 18.1605517 36.5595309 18.1605517ZM8.86688272 22.2808276 17.5040185 22.2808276 17.5040185 9.73406897 8.86688272 9.73406897 8.86688272 22.2808276ZM13.1848889 23.0217931C12.7001173 23.0217931 12.3052222 23.4107586 12.3052222 23.888 12.3052222 24.3641379 12.7001173 24.7525517 13.1848889 24.7525517 13.6713457 24.7525517 14.0651173 24.3641379 14.0651173 23.888 14.0651173 23.4107586 13.6713457 23.0217931 13.1848889 23.0217931ZM12.3389259 8.45462069 14.0314136 8.45462069C14.1420741 8.45462069 14.2325123 8.36468966 14.2325123 8.26041379 14.2325123 8.15062069 14.1420741 8.0617931 14.0314136 8.0617931L12.3389259 8.0617931C12.2310741 8.0617931 12.1389506 8.15062069 12.1389506 8.26041379 12.1389506 8.36468966 12.2310741 8.45462069 12.3389259 8.45462069Z"
            id="Fill-4"
          />
          <path
            d="M4.33879012 1.296C2.56541358 1.296 1.12345679 2.71282759 1.12345679 4.45406897L1.12345679 27.5508966C1.12345679 29.2893793 2.56541358 30.704 4.33879012 30.704L86.1663272 30.704C87.939142 30.704 89.3816605 29.2893793 89.3816605 27.5508966L89.3816605 4.45406897C89.3816605 2.71282759 87.939142 1.296 86.1663272 1.296L4.33879012 1.296ZM86.1663272 31.8074483 4.33879012 31.8074483C1.94638889 31.8074483 0 29.897931 0 27.5508966L0 4.45406897C0 2.10427586 1.94638889.192551724 4.33879012.192551724L86.1663272.192551724C88.5587284.192551724 90.5051173 2.10427586 90.5051173 4.45406897L90.5051173 27.5508966C90.5051173 29.897931 88.5587284 31.8074483 86.1663272 31.8074483Z"
            id="Fill-5"
          />
        </g>
      </g>
    </g>
    <g id="icon-playstore" stroke="none" strokeWidth="1" fill="none" fillRule="evenodd">
      <g transform="translate(-701.000000, -581.000000)" fill="#77899E" id="PlayStore">
        <g transform="translate(701.000000, 581.000000)">
          <path
            d="M5.04 1.296C3.05023256 1.296 1.43051163 2.89655172 1.43051163 4.864L1.43051163 27.1084138C1.43051163 29.0758621 3.05023256 30.6764138 5.04 30.6764138L90.9806512 30.6764138C92.9704186 30.6764138 94.5895814 29.0758621 94.5895814 27.1084138L94.5895814 4.864C94.5895814 2.89655172 92.9704186 1.296 90.9806512 1.296L5.04 1.296ZM90.9806512 31.7798621 5.04 31.7798621C2.43404651 31.7798621.314232558 29.6844138.314232558 27.1084138L.314232558 4.864C.314232558 2.288 2.43404651.192551724 5.04.192551724L90.9806512.192551724C93.5860465.192551724 95.7058605 2.288 95.7058605 4.864L95.7058605 27.1084138C95.7058605 29.6844138 93.5860465 31.7798621 90.9806512 31.7798621Z"
            id="Fill-24"
          />
          <path
            d="M31.0989767 8.30675862C30.8734884 7.63310345 30.760186 7.26951724 30.760186 7.21434483L30.7289302 7.21434483C30.7289302 7.26510345 30.6117209 7.62924138 30.3784186 8.30675862L31.0989767 8.30675862ZM32.0137674 9.41241379 31.3802791 9.41241379C31.3802791 9.32634483 31.32 9.08248276 31.2 8.68027586L30.2852093 8.68027586C30.1613023 9.07586207 30.0993488 9.31972414 30.0993488 9.41241379L29.5032558 9.41241379C29.5032558 9.36165517 29.6573023 8.944 29.9653953 8.16 30.2734884 7.37544828 30.4275349 6.944 30.4275349 6.864L31.176 6.864C31.176 6.93848276 31.3155349 7.36441379 31.5951628 8.14124138 31.8742326 8.91806897 32.0137674 9.3417931 32.0137674 9.41241379Z"
            id="Fill-25"
          />
          <path
            d="M34.5666977 9.41241379 34.0777674 9.41241379C34.0777674 9.35889655 33.8963721 9.07641379 33.5330233 8.56496552 33.1529302 8.02593103 32.9363721 7.65737931 32.883907 7.45931034L32.852093 7.45931034C32.8850233 7.74510345 32.9017674 8.00331034 32.9017674 8.23393103 32.9017674 8.55668966 32.9106977 8.94951724 32.9291163 9.41241379L32.4424186 9.41241379C32.4619535 9.008 32.472 8.56386207 32.472 8.07944828 32.472 7.60331034 32.4619535 7.19834483 32.4424186 6.864L33.0301395 6.864C33.0301395 6.93351724 33.1931163 7.20937931 33.5196279 7.69213793 33.8667907 8.20468966 34.0660465 8.55282759 34.1173953 8.73544828L34.1469767 8.73544828C34.1151628 8.44413793 34.0995349 8.18317241 34.0995349 7.95255172 34.0995349 7.59889655 34.0900465 7.23586207 34.0716279 6.864L34.5666977 6.864C34.5482791 7.18786207 34.5393488 7.59282759 34.5393488 8.07944828 34.5393488 8.57048276 34.5482791 9.01462069 34.5666977 9.41241379"
            id="Fill-26"
          />
          <path
            d="M36.895814 8.13462069C36.895814 7.88358621 36.8221395 7.67282759 36.6742326 7.50124138 36.5263256 7.32965517 36.3008372 7.24358621 35.9972093 7.24358621 35.9402791 7.24358621 35.8626977 7.24965517 35.7633488 7.26124138 35.7767442 7.5222069 35.7834419 7.79531034 35.7834419 8.07944828 35.7834419 8.39172414 35.7901395 8.70068966 35.8029767 9.00744828 35.8889302 9.02455172 35.9748837 9.03282759 36.0602791 9.03282759 36.3443721 9.03282759 36.5547907 8.94565517 36.6909767 8.77131034 36.8277209 8.59751724 36.895814 8.38510345 36.895814 8.13462069ZM37.4366512 8.0502069C37.4366512 8.42096552 37.3166512 8.74427586 37.076093 9.02124138 36.836093 9.29765517 36.4995349 9.43613793 36.0664186 9.43613793 35.8710698 9.43613793 35.6020465 9.42786207 35.2587907 9.41241379 35.2755349 9.01848276 35.2844651 8.57434483 35.2844651 8.07944828 35.2844651 7.60441379 35.2755349 7.19944828 35.2587907 6.864L35.6048372 6.864C35.6617674 6.864 35.7460465 6.86234483 35.8587907 6.85848276 35.9704186 6.85462069 36.044093 6.85241379 36.0781395 6.85241379 36.5547907 6.85241379 36.9002791 6.96993103 37.1146047 7.20496552 37.3294884 7.43944828 37.4366512 7.72137931 37.4366512 8.0502069Z"
            id="Fill-27"
          />
          <path
            d="M39.3404651 7.61158621C39.3404651 7.35227586 39.1713488 7.22206897 38.8331163 7.22206897 38.7092093 7.22206897 38.599814 7.23144828 38.5049302 7.24965517 38.5194419 7.45213793 38.5266977 7.71531034 38.5266977 8.04027586 38.5992558 8.04303448 38.6606512 8.04413793 38.7108837 8.04413793 39.1306047 8.04413793 39.3404651 7.90013793 39.3404651 7.61158621ZM40.0827907 9.41241379 39.4967442 9.41241379C39.3432558 8.95062069 39.2260465 8.66537931 39.144 8.55724138 39.0625116 8.44910345 38.9302326 8.39448276 38.7482791 8.39448276 38.671814 8.39448276 38.5981395 8.39558621 38.5283721 8.39668966 38.5283721 8.73213793 38.5345116 9.07089655 38.5462326 9.41241379L37.995907 9.41241379C38.0132093 9.01848276 38.0215814 8.57434483 38.0215814 8.07944828 38.0215814 7.60441379 38.0132093 7.19944828 37.995907 6.864L38.3386047 6.864C38.3782326 6.864 38.4608372 6.86234483 38.5869767 6.85848276 38.7131163 6.85462069 38.8292093 6.85241379 38.9363721 6.85241379 39.5419535 6.85241379 39.8450233 7.05710345 39.8450233 7.46703448 39.8450233 7.792 39.672 8.0182069 39.3265116 8.1462069L39.3265116 8.17544828C39.459907 8.21186207 39.5765581 8.31503448 39.6770233 8.48386207 39.7769302 8.65268966 39.9125581 8.9622069 40.0827907 9.41241379Z"
            id="Fill-28"
          />
          <path
            d="M42.3745116 8.14786207C42.3745116 7.87531034 42.3036279 7.65406897 42.1624186 7.48468966 42.0212093 7.31475862 41.8470698 7.23034483 41.64 7.23034483 41.4468837 7.23034483 41.2833488 7.31586207 41.1488372 7.48634483 41.0143256 7.65737931 40.9467907 7.87365517 40.9467907 8.13462069 40.9467907 8.40606897 41.0176744 8.62675862 41.16 8.79668966 41.3017674 8.96717241 41.4753488 9.05213793 41.6813023 9.05213793 41.8744186 9.05213793 42.0379535 8.96662069 42.1724651 8.79503448 42.3069767 8.62344828 42.3745116 8.40772414 42.3745116 8.14786207ZM42.9209302 8.09158621C42.9209302 8.49213793 42.7970233 8.82427586 42.5486512 9.08744828 42.3002791 9.35117241 41.9938605 9.48303448 41.6282791 9.48303448 41.2794419 9.48303448 40.9875349 9.36165517 40.7531163 9.12 40.5181395 8.8777931 40.4003721 8.57048276 40.4003721 8.19696552 40.4003721 7.79641379 40.5242791 7.46427586 40.7726512 7.20055172 41.0210233 6.93737931 41.3274419 6.80551724 41.6935814 6.80551724 42.0418605 6.80551724 42.3337674 6.92634483 42.5687442 7.16744828 42.8031628 7.40910345 42.9209302 7.71696552 42.9209302 8.09158621Z"
            id="Fill-29"
          />
          <path
            d="M44.0405581 9.41241379 43.480186 9.41241379C43.4974884 9.008 43.5058605 8.56386207 43.5058605 8.07944828 43.5058605 7.60331034 43.4974884 7.19834483 43.480186 6.864L44.0405581 6.864C44.0232558 7.19282759 44.0148837 7.59834483 44.0148837 8.07944828 44.0148837 8.57158621 44.0232558 9.01572414 44.0405581 9.41241379"
            id="Fill-30"
          />
          <path
            d="M46.3696744 8.13462069C46.3696744 7.88358621 46.296 7.67282759 46.148093 7.50124138 46.000186 7.32965517 45.7746977 7.24358621 45.4710698 7.24358621 45.4141395 7.24358621 45.336 7.24965517 45.2372093 7.26124138 45.2506047 7.5222069 45.2573023 7.79531034 45.2573023 8.07944828 45.2573023 8.39172414 45.2634419 8.70068966 45.2768372 9.00744828 45.3627907 9.02455172 45.448186 9.03282759 45.5341395 9.03282759 45.8182326 9.03282759 46.028093 8.94565517 46.1648372 8.77131034 46.3015814 8.59751724 46.3696744 8.38510345 46.3696744 8.13462069ZM46.9105116 8.0502069C46.9105116 8.42096552 46.7899535 8.74427586 46.5499535 9.02124138 46.3099535 9.29765517 45.9728372 9.43613793 45.5402791 9.43613793 45.3449302 9.43613793 45.0753488 9.42786207 44.732093 9.41241379 44.7493953 9.01848276 44.7583256 8.57434483 44.7583256 8.07944828 44.7583256 7.60441379 44.7493953 7.19944828 44.732093 6.864L45.0786977 6.864C45.1356279 6.864 45.219907 6.86234483 45.332093 6.85848276 45.4442791 6.85462069 45.5179535 6.85241379 45.552 6.85241379 46.0286512 6.85241379 46.3741395 6.96993103 46.5884651 7.20496552 46.8027907 7.43944828 46.9105116 7.72137931 46.9105116 8.0502069Z"
            id="Fill-31"
          />
          <path
            d="M49.8027907 8.30675862C49.5773023 7.63310345 49.464 7.26951724 49.464 7.21434483L49.432186 7.21434483C49.432186 7.26510345 49.3155349 7.62924138 49.0822326 8.30675862L49.8027907 8.30675862ZM50.7175814 9.41241379 50.084093 9.41241379C50.084093 9.32634483 50.023814 9.08248276 49.903814 8.68027586L48.9890233 8.68027586C48.8651163 9.07586207 48.8026047 9.31972414 48.8026047 9.41241379L48.2070698 9.41241379C48.2070698 9.36165517 48.3611163 8.944 48.6692093 8.16 48.9773023 7.37544828 49.1313488 6.944 49.1313488 6.864L49.879814 6.864C49.879814 6.93848276 50.0193488 7.36441379 50.2989767 8.14124138 50.5780465 8.91806897 50.7175814 9.3417931 50.7175814 9.41241379Z"
            id="Fill-32"
          />
          <path
            d="M52.5164651 7.63917241C52.5164651 7.36 52.3289302 7.22041379 51.9538605 7.22041379 51.860093 7.22041379 51.7613023 7.23034483 51.6569302 7.24965517 51.6714419 7.49627586 51.6786977 7.77544828 51.6786977 8.08717241 51.7116279 8.08993103 51.7501395 8.09158621 51.7936744 8.09158621 52.2753488 8.09158621 52.5164651 7.94041379 52.5164651 7.63917241ZM53.0271628 7.53158621C53.0271628 7.84331034 52.9099535 8.07393103 52.6755349 8.22234483 52.4416744 8.37131034 52.1542326 8.4457931 51.8132093 8.4457931 51.7512558 8.4457931 51.7071628 8.44413793 51.6809302 8.44193103 51.6809302 8.68689655 51.688186 9.01075862 51.7026977 9.41241379L51.1462326 9.41241379C51.1629767 9.03558621 51.171907 8.59089655 51.171907 8.07944828 51.171907 7.60993103 51.1629767 7.20496552 51.1462326 6.864L51.4906047 6.864C51.5391628 6.864 51.6334884 6.86234483 51.771907 6.85848276 51.9103256 6.85462069 52.0303256 6.85241379 52.131907 6.85241379 52.3830698 6.85241379 52.5946047 6.90868966 52.7676279 7.02068966 52.9406512 7.13324138 53.0271628 7.30317241 53.0271628 7.53158621Z"
            id="Fill-33"
          />
          <path
            d="M54.8907907 7.63917241C54.8907907 7.36 54.703814 7.22041379 54.3287442 7.22041379 54.2349767 7.22041379 54.1356279 7.23034483 54.031814 7.24965517 54.0463256 7.49627586 54.0535814 7.77544828 54.0535814 8.08717241 54.0865116 8.08993103 54.1250233 8.09158621 54.1685581 8.09158621 54.6502326 8.09158621 54.8907907 7.94041379 54.8907907 7.63917241ZM55.4020465 7.53158621C55.4020465 7.84331034 55.2848372 8.07393103 55.0504186 8.22234483 54.816 8.37131034 54.5285581 8.4457931 54.188093 8.4457931 54.1261395 8.4457931 54.0820465 8.44413793 54.0552558 8.44193103 54.0552558 8.68689655 54.0625116 9.01075862 54.0770233 9.41241379L53.5211163 9.41241379C53.5378605 9.03558621 53.5467907 8.59089655 53.5467907 8.07944828 53.5467907 7.60993103 53.5378605 7.20496552 53.5211163 6.864L53.8654884 6.864C53.9140465 6.864 54.007814 6.86234483 54.1467907 6.85848276 54.2852093 6.85462069 54.4052093 6.85241379 54.5067907 6.85241379 54.7573953 6.85241379 54.9694884 6.90868966 55.1425116 7.02068966 55.3155349 7.13324138 55.4020465 7.30317241 55.4020465 7.53158621Z"
            id="Fill-34"
          />
          <path
            d="M58.7380465 8.14786207C58.7380465 7.87531034 58.6671628 7.65406897 58.5259535 7.48468966 58.3847442 7.31475862 58.2106047 7.23034483 58.0035349 7.23034483 57.8104186 7.23034483 57.6468837 7.31586207 57.5123721 7.48634483 57.3778605 7.65737931 57.3103256 7.87365517 57.3103256 8.13462069 57.3103256 8.40606897 57.3812093 8.62675862 57.5235349 8.79668966 57.6653023 8.96717241 57.8388837 9.05213793 58.0448372 9.05213793 58.2379535 9.05213793 58.4014884 8.96662069 58.536 8.79503448 58.6705116 8.62344828 58.7380465 8.40772414 58.7380465 8.14786207ZM59.2844651 8.09158621C59.2844651 8.49213793 59.1605581 8.82427586 58.912186 9.08744828 58.663814 9.35117241 58.3568372 9.48303448 57.9912558 9.48303448 57.6429767 9.48303448 57.3510698 9.36165517 57.116093 9.12 56.8816744 8.8777931 56.763907 8.57048276 56.763907 8.19696552 56.763907 7.79641379 56.887814 7.46427586 57.136186 7.20055172 57.3845581 6.93737931 57.6909767 6.80551724 58.0565581 6.80551724 58.4053953 6.80551724 58.6973023 6.92634483 58.9317209 7.16744828 59.1666977 7.40910345 59.2844651 7.71696552 59.2844651 8.09158621Z"
            id="Fill-35"
          />
          <path
            d="M61.968 9.41241379 61.4790698 9.41241379C61.4790698 9.35889655 61.2976744 9.07641379 60.9348837 8.56496552 60.5542326 8.02593103 60.3376744 7.65737931 60.2852093 7.45931034L60.2533953 7.45931034C60.2863256 7.74510345 60.3030698 8.00331034 60.3030698 8.23393103 60.3030698 8.55668966 60.312 8.94951724 60.3309767 9.41241379L59.8437209 9.41241379C59.8632558 9.008 59.8733023 8.56386207 59.8733023 8.07944828 59.8733023 7.60331034 59.8632558 7.19834483 59.8437209 6.864L60.4314419 6.864C60.4314419 6.93351724 60.5949767 7.20937931 60.9209302 7.69213793 61.268093 8.20468966 61.4673488 8.55282759 61.5186977 8.73544828L61.5482791 8.73544828C61.5164651 8.44413793 61.5008372 8.18317241 61.5008372 7.95255172 61.5008372 7.59889655 61.491907 7.23586207 61.4729302 6.864L61.968 6.864C61.9495814 7.18786207 61.9406512 7.59282759 61.9406512 8.07944828 61.9406512 8.57048276 61.9495814 9.01462069 61.968 9.41241379"
            id="Fill-36"
          />
          <path
            d="M38.6104186 17.5768276C38.6104186 18.8413793 38.2308837 19.8493793 37.471814 20.5997241 36.6100465 21.4935172 35.488186 21.9404138 34.1062326 21.9404138 32.784 21.9404138 31.6604651 21.4874483 30.7350698 20.5809655 29.8091163 19.6744828 29.3469767 18.5506207 29.3469767 17.209931 29.3469767 15.8697931 29.8091163 14.745931 30.7350698 13.8394483 31.6604651 12.9329655 32.784 12.48 34.1062326 12.48 34.7631628 12.48 35.3899535 12.6057931 35.9877209 12.8590345 36.5843721 13.1117241 37.0621395 13.449931 37.4204651 13.8708966L36.6145116 14.6681379C36.0089302 13.9514483 35.1728372 13.5928276 34.1062326 13.5928276 33.1423256 13.5928276 32.3090233 13.9277241 31.6052093 14.5986207 30.9013953 15.2689655 30.5492093 16.1395862 30.5492093 17.209931 30.5492093 18.2813793 30.9013953 19.1514483 31.6052093 19.8223448 32.3090233 20.4921379 33.1423256 20.8275862 34.1062326 20.8275862 35.1298605 20.8275862 35.9832558 20.4904828 36.6653023 19.8157241 37.1090233 19.3771034 37.3646512 18.7657931 37.4327442 17.9817931L34.1062326 17.9817931 34.1062326 16.8937931 38.5462326 16.8937931C38.5892093 17.1304828 38.6104186 17.3577931 38.6104186 17.5768276"
            id="Fill-37"
          />
          <path
            d="M40.8814884 20.2642759C41.2866977 20.6736552 41.7661395 20.8783448 42.3209302 20.8783448 42.8751628 20.8783448 43.3551628 20.6736552 43.7603721 20.2642759 44.1655814 19.8554483 44.368186 19.3142069 44.368186 18.6394483 44.368186 17.9646897 44.1655814 17.4234483 43.7603721 17.014069 43.3551628 16.6052414 42.8751628 16.4005517 42.3209302 16.4005517 41.7661395 16.4005517 41.2866977 16.6052414 40.8814884 17.014069 40.4762791 17.4234483 40.2736744 17.9646897 40.2736744 18.6394483 40.2736744 19.3142069 40.4762791 19.8554483 40.8814884 20.2642759ZM40.0052093 16.2808276C40.6107907 15.6524138 41.3826977 15.3384828 42.3209302 15.3384828 43.2591628 15.3384828 44.0310698 15.6524138 44.6372093 16.2808276 45.2427907 16.9086897 45.5453023 17.6948966 45.5453023 18.6394483 45.5453023 19.584 45.2427907 20.3702069 44.6372093 20.998069 44.0310698 21.6264828 43.2591628 21.9404138 42.3209302 21.9404138 41.3826977 21.9404138 40.6107907 21.6264828 40.0052093 20.998069 39.3996279 20.3702069 39.0965581 19.584 39.0965581 18.6394483 39.0965581 17.6948966 39.3996279 16.9086897 40.0052093 16.2808276Z"
            id="Fill-38"
          />
          <path
            d="M47.7270698 20.2642759C48.1317209 20.6736552 48.6117209 20.8783448 49.1665116 20.8783448 49.7207442 20.8783448 50.200186 20.6736552 50.6059535 20.2642759 51.0111628 19.8554483 51.2137674 19.3142069 51.2137674 18.6394483 51.2137674 17.9646897 51.0111628 17.4234483 50.6059535 17.014069 50.200186 16.6052414 49.7207442 16.4005517 49.1665116 16.4005517 48.6117209 16.4005517 48.1317209 16.6052414 47.7270698 17.014069 47.3213023 17.4234483 47.1192558 17.9646897 47.1192558 18.6394483 47.1192558 19.3142069 47.3213023 19.8554483 47.7270698 20.2642759ZM46.8502326 16.2808276C47.455814 15.6524138 48.2277209 15.3384828 49.1665116 15.3384828 50.104186 15.3384828 50.876093 15.6524138 51.4822326 16.2808276 52.087814 16.9086897 52.3903256 17.6948966 52.3903256 18.6394483 52.3903256 19.584 52.087814 20.3702069 51.4822326 20.998069 50.876093 21.6264828 50.104186 21.9404138 49.1665116 21.9404138 48.2277209 21.9404138 47.455814 21.6264828 46.8502326 20.998069 46.2446512 20.3702069 45.9415814 19.584 45.9415814 18.6394483 45.9415814 17.6948966 46.2446512 16.9086897 46.8502326 16.2808276Z"
            id="Fill-39"
          />
          <path
            d="M55.9607442 20.8783448C56.5149767 20.8783448 56.9866047 20.6753103 57.3745116 20.2708966 57.7624186 19.8664828 57.9566512 19.321931 57.9566512 18.6394483 57.9566512 17.9564138 57.7624186 17.4124138 57.3745116 17.008 56.9866047 16.6030345 56.5149767 16.4005517 55.9607442 16.4005517 55.4143256 16.4005517 54.9449302 16.6052414 54.5531163 17.014069 54.1607442 17.4234483 53.9642791 17.9646897 53.9642791 18.6394483 53.9642791 19.3142069 54.1607442 19.8554483 54.5531163 20.2642759 54.9449302 20.6736552 55.4143256 20.8783448 55.9607442 20.8783448ZM55.8714419 24.6725517C55.1285581 24.6725517 54.5229767 24.4893793 54.0541395 24.1224828 53.5847442 23.7550345 53.2476279 23.3357241 53.0433488 22.8634483L54.1183256 22.4215172C54.2377674 22.758069 54.4571163 23.0411034 54.7774884 23.2684138 55.0967442 23.4962759 55.4612093 23.609931 55.8714419 23.609931 56.5194419 23.609931 57.0290233 23.417931 57.400186 23.0344828 57.7713488 22.6510345 57.9566512 22.1302069 57.9566512 21.4725517L57.9566512 20.8783448 57.9053023 20.8783448C57.7004651 21.1812414 57.4102326 21.4344828 57.0351628 21.6369655 56.660093 21.8394483 56.2375814 21.9404138 55.7687442 21.9404138 54.9583256 21.9404138 54.2589767 21.6242759 53.6701395 20.992 53.0813023 20.3591724 52.7871628 19.5751724 52.7871628 18.6394483 52.7871628 17.7037241 53.0813023 16.9191724 53.6701395 16.2863448 54.2589767 15.6546207 54.9583256 15.3384828 55.7687442 15.3384828 56.2375814 15.3384828 56.660093 15.4394483 57.0351628 15.6413793 57.4102326 15.8444138 57.7004651 16.0971034 57.9053023 16.4005517L57.9566512 16.4005517 57.9566512 15.5404138 59.0824186 15.5404138 59.0824186 21.4217931C59.0824186 22.4844138 58.7709767 23.2915862 58.1486512 23.8444138 57.5257674 24.3961379 56.7666977 24.6725517 55.8714419 24.6725517Z"
            id="Fill-40"
          />
          <polygon
            id="Fill-41"
            points="60.195907 21.737931 61.3724651 21.737931 61.3724651 12.681931 60.195907 12.681931"
          />
          <path
            d="M66.9510698 17.8929655C66.9253953 17.5387586 66.7607442 17.2022069 66.4582326 16.8811034 66.1551628 16.5605517 65.7053023 16.4005517 65.108093 16.4005517 64.6733023 16.4005517 64.296 16.5357241 63.976186 16.8055172 63.6563721 17.0753103 63.4364651 17.4377931 63.3170233 17.8929655L66.9510698 17.8929655ZM65.2621395 21.9404138C64.3149767 21.9404138 63.5453023 21.6286897 62.9525581 21.0041379 62.359814 20.3806897 62.0628837 19.5922759 62.0628837 18.6394483 62.0628837 17.7368276 62.3508837 16.9616552 62.9268837 16.3117241 63.5023256 15.6628966 64.2385116 15.3384828 65.1337674 15.3384828 66.0636279 15.3384828 66.8076279 15.638069 67.3663256 16.2366897 67.9250233 16.8353103 68.2046512 17.6364138 68.2046512 18.6394483L68.1923721 18.8546207 63.2405581 18.8546207C63.2740465 19.4786207 63.4855814 19.9718621 63.8734884 20.3337931 64.2619535 20.6968276 64.7157209 20.8783448 65.2364651 20.8783448 66.0809302 20.8783448 66.6524651 20.5235862 66.9510698 19.8157241L67.999814 20.2455172C67.7955349 20.726069 67.4578605 21.1293793 66.9890233 21.4537931 66.520186 21.7776552 65.944186 21.9404138 65.2621395 21.9404138Z"
            id="Fill-42"
          />
          <path
            d="M72.8366512 16.9572414 74.8068837 16.9572414C75.3013953 16.9572414 75.6982326 16.7922759 75.9968372 16.464 76.2954419 16.1351724 76.4450233 15.7726897 76.4450233 15.376 76.4450233 14.9798621 76.2954419 14.6173793 75.9968372 14.2885517 75.6982326 13.9597241 75.3013953 13.7953103 74.8068837 13.7953103L72.8366512 13.7953103 72.8366512 16.9572414ZM72.8366512 21.737931 71.6595349 21.737931 71.6595349 12.681931 74.7812093 12.681931C75.5575814 12.681931 76.2290233 12.9373793 76.7966512 13.4471724 77.3637209 13.958069 77.6472558 14.6008276 77.6472558 15.376 77.6472558 16.1517241 77.3637209 16.7950345 76.7966512 17.3048276 76.2290233 17.8151724 75.5575814 18.070069 74.7812093 18.070069L72.8366512 18.070069 72.8366512 21.737931Z"
            id="Fill-43"
          />
          <polygon
            id="Fill-44"
            points="78.4152558 21.737931 79.5923721 21.737931 79.5923721 12.681931 78.4152558 12.681931"
          />
          <path
            d="M82.816186 20.8783448C83.3023256 20.8783448 83.743814 20.6984828 84.1406512 20.3404138 84.5374884 19.9823448 84.7350698 19.5586207 84.7350698 19.0692414 84.4029767 18.7994483 83.904 18.6648276 83.2386977 18.6648276 82.6666047 18.6648276 82.2362791 18.7873103 81.9460465 19.0311724 81.6563721 19.2761379 81.5112558 19.5624828 81.5112558 19.8918621 81.5112558 20.1947586 81.6429767 20.4353103 81.908093 20.6124138 82.172093 20.7889655 82.4751628 20.8783448 82.816186 20.8783448ZM82.624186 21.9404138C81.9588837 21.9404138 81.4024186 21.7506207 80.9547907 21.3710345 80.5066047 20.992 80.2827907 20.4904828 80.2827907 19.8664828 80.2827907 19.1917241 80.5467907 18.6626207 81.0764651 18.2791724 81.6050233 17.8951724 82.2574884 17.7037241 83.0338605 17.7037241 83.7248372 17.7037241 84.291907 17.8295172 84.7350698 18.0827586L84.7350698 17.9056552C84.7350698 17.4504828 84.5776744 17.0857931 84.2623256 16.8121379 83.9464186 16.5373793 83.5585116 16.4005517 83.0980465 16.4005517 82.7564651 16.4005517 82.4472558 16.4811034 82.1704186 16.6411034 81.8930233 16.8011034 81.7032558 17.0201379 81.6005581 17.2982069L80.5255814 16.8430345C80.6706977 16.4722759 80.9564651 16.1285517 81.3828837 15.8124138 81.8093023 15.4962759 82.3724651 15.3384828 83.0723721 15.3384828 83.8738605 15.3384828 84.5391628 15.5707586 85.0682791 16.0336552 85.5968372 16.4976552 85.8613953 17.1514483 85.8613953 17.9944828L85.8613953 21.737931 84.7350698 21.737931 84.7350698 20.8783448 84.6848372 20.8783448C84.2154419 21.5862069 83.5283721 21.9404138 82.624186 21.9404138Z"
            id="Fill-45"
          />
          <polyline
            id="Fill-46"
            points="88.4210233 24.4695172 87.2053953 24.4695172 88.663814 21.3456552 86.0796279 15.5404138 87.3588837 15.5404138 89.2269767 19.9928276 89.2526512 19.9928276 91.0693953 15.5404138 92.3486512 15.5404138 88.4210233 24.4695172"
          />
          <path
            d="M7.39088372 17.0565517C7.39088372 14.1638621 7.392 11.2711724 7.3892093 8.37903448 7.3892093 8.02372414 7.45897674 7.69986207 7.71348837 7.43172414 7.81227907 7.32744828 7.88316279 7.29931034 8.00483721 7.4217931 9.97339535 9.40744828 11.9469767 11.3892414 13.9205581 13.3710345 15.1981395 14.6543448 16.4751628 15.9382069 17.7583256 17.2165517 17.8827907 17.3406897 17.8939535 17.4057931 17.7622326 17.5354483 14.623814 20.6195862 11.488186 23.7070345 8.36148837 26.8022069 8.17004651 26.9914483 8.03609302 26.9715862 7.85302326 26.832 7.5175814 26.5771034 7.3892093 26.2361379 7.38976744 25.8295172 7.39032558 24.1164138 7.38697674 22.4033103 7.38586047 20.6902069 7.38530233 19.4786207 7.38586047 18.2675862 7.38586047 17.0565517 7.38753488 17.0565517 7.3892093 17.0565517 7.39088372 17.0565517"
            id="Fill-47"
          />
          <path
            d="M8.51553488 7.10121197C8.75497674 7.09958621 8.92353488 7.168 9.08651163 7.25793103 13.0939535 9.47806897 17.1008372 11.6987586 21.1110698 13.913931 21.2952558 14.0154483 21.2913488 14.0722759 21.1490233 14.2107586 20.2526512 15.0824828 19.3635349 15.9613793 18.4749767 16.8408276 18.3789767 16.9357241 18.3209302 16.9903448 18.192 16.8606897 15.003907 13.6463448 11.8107907 10.4369655 8.6187907 7.22648276 8.592 7.19944828 8.56967442 7.168 8.51553488 7.10121197"
            id="Fill-48"
          />
          <path
            d="M9.41246512 26.7288276C12.3214884 23.8223448 15.232186 20.918069 18.1345116 18.0049655 18.3142326 17.824 18.3985116 17.8482759 18.559814 18.0143448 19.2971163 18.7729655 20.0450233 19.5216552 20.7962791 20.2664828 20.9285581 20.3977931 20.9397209 20.4513103 20.7605581 20.5484138 17.0260465 22.5688276 13.2948837 24.5958621 9.56316279 26.6201379 9.50176744 26.6537931 9.44427907 26.7084138 9.41246512 26.7288276"
            id="Fill-49"
          />
          <path
            d="M26.0299535 17.1371034C26.0176744 17.4626207 25.8619535 17.6915862 25.6264186 17.8631724 25.4522791 17.9906207 25.2602791 18.0948966 25.0699535 18.1986207 23.9408372 18.816 22.8089302 19.4267586 21.6820465 20.048 21.5302326 20.1318621 21.439814 20.1285517 21.3142326 19.9994483 20.512186 19.1806897 19.7028837 18.3685517 18.8891163 17.5608276 18.7707907 17.4433103 18.7674419 17.3787586 18.8891163 17.2606897 19.8368372 16.3376552 20.7795349 15.4096552 21.7183256 14.4772414 21.8288372 14.3668966 21.908093 14.3547586 22.0459535 14.432 23.1611163 15.0565517 24.2818605 15.6728276 25.399814 16.2924138 25.7458605 16.4838621 26.0148837 16.7321379 26.0299535 17.1371034"
            id="Fill-50"
          />
        </g>
      </g>
    </g>
  </defs>
</svg>